<mxfile host="app.diagrams.net" modified="2024-02-26T18:41:36.234Z" agent="Mozilla/5.0 (Windows NT 10.0; Win64; x64) AppleWebKit/537.36 (KHTML, like Gecko) Chrome/121.0.0.0 Safari/537.36 OPR/107.0.0.0 (Edition Yx GX)" version="23.1.7" etag="ESpbM-I6dZQ84W-ApGNs" type="github">
  <diagram name="Страница — 1" id="iMzwa3yR_TfquZFxTymk">
    <mxGraphModel>
      <root>
        <mxCell id="0" />
        <mxCell id="1" parent="0" />
      </root>
    </mxGraphModel>
  </diagram>
</mxfile>
